PathFileType	4	(X/Y/Z)	c:/Users/goper/Files/vsCode/490R/osim_files/C06/C06_Static_02.trc
DataRate	CameraRate	NumFrames	NumMarkers	Units                	OrigDataRate	OrigDataStartFrame	OrigNumFrames
250.00	250.00	6	36	mm	250.0	1027	1368
                Frame#	Time	LPSIS			LASIS			LTH1			LTH2			LTH3			LTH4			LLFE			LMFE			LSH1			LSH2			LSH3			LSH4			LLMAL			LMMAL			LCAL			LMTP5			LTOE			LMTP1			RPSIS			RASIS			RTH1			RTH2			RTH3			RTH4			RLFE			RMFE			RSH1			RSH2			RSH3			RSH4			RLMAL			RMMAL			RCAL			RMTP1			RTOE			RMTP5		
		X1	Y1	Z1	X2	Y2	Z2	X3	Y3	Z3	X4	Y4	Z4	X5	Y5	Z5	X6	Y6	Z6	X7	Y7	Z7	X8	Y8	Z8	X9	Y9	Z9	X10	Y10	Z10	X11	Y11	Z11	X12	Y12	Z12	X13	Y13	Z13	X14	Y14	Z14	X15	Y15	Z15	X16	Y16	Z16	X17	Y17	Z17	X18	Y18	Z18	X19	Y19	Z19	X20	Y20	Z20	X21	Y21	Z21	X22	Y22	Z22	X23	Y23	Z23	X24	Y24	Z24	X25	Y25	Z25	X26	Y26	Z26	X27	Y27	Z27	X28	Y28	Z28	X29	Y29	Z29	X30	Y30	Z30	X31	Y31	Z31	X32	Y32	Z32	X33	Y33	Z33	X34	Y34	Z34	X35	Y35	Z35	X36	Y36	Z36

1027	4.10400	-372.44000	1013.66156	462.64377	-202.81631	977.92706	351.93561	-297.74136	793.70636	268.11588	-292.53882	731.83435	258.86560	-223.72028	790.94177	281.26736	-227.76318	730.60803	270.98566	-301.15253	480.70032	268.41693	-308.79068	444.92273	378.79675	-373.22885	376.17886	235.03423	-365.90186	333.21207	230.50421	-308.75296	382.22845	233.14117	-311.75278	338.20377	228.08086	-330.61160	92.17081	237.57161	-322.21365	103.45109	315.09039	-392.33493	65.69572	282.49152	-219.85135	31.94852	202.41667	-165.99622	56.92964	268.74130	-192.15390	37.87133	314.81805	-369.53207	1011.50867	534.36230	-182.80835	972.36829	591.57880	-276.34290	789.50720	689.70703	-268.88837	726.80621	691.83838	-203.87335	790.44696	669.52252	-206.80037	727.77991	675.65491	-289.70477	463.08566	678.55176	-285.66718	460.32446	568.28558	-348.00470	392.74893	709.38892	-345.75891	344.91690	716.16400	-287.66617	385.49161	699.84955	-294.28076	339.79010	706.90784	-323.48785	90.56885	696.10193	-315.62161	105.77894	618.18512	-388.19333	62.42200	656.03217	-184.51698	35.92981	610.45996	-163.68118	53.96770	655.84442	-205.58072	28.14537	723.95013
1028	4.10800	-372.46024	1013.67267	462.64362	-202.80762	977.93207	351.93631	-297.76776	793.69879	268.13409	-292.57269	731.82709	258.86087	-223.72028	790.95349	281.25607	-227.78259	730.60114	270.95999	-301.13846	480.69180	268.41119	-308.79416	444.93628	378.80014	-373.22391	376.17029	235.02710	-365.89780	333.19507	230.49219	-308.76541	382.22955	233.12578	-311.75348	338.18481	228.05717	-330.63724	92.15749	237.57581	-322.21057	103.45855	315.08493	-392.33984	65.68017	282.49686	-219.84883	31.95518	202.40897	-166.86501	56.41394	269.53455	-192.13943	37.88214	314.80777	-369.55917	1011.51038	534.37622	-182.81290	972.35168	591.58228	-276.31223	789.48871	689.68976	-268.88922	726.78943	691.79858	-203.86359	790.44440	669.50146	-206.78337	727.78326	675.62646	-289.71213	463.08536	678.54712	-285.65945	460.31982	568.25659	-347.96017	392.73529	709.39325	-345.71350	344.90424	716.16827	-287.65729	385.48911	699.84058	-294.27997	339.78525	706.90192	-323.49106	90.55466	696.08624	-315.62338	105.77242	618.17877	-388.15582	62.40443	655.99725	-184.50984	35.93443	610.45764	-163.71739	53.97994	655.81860	-205.57027	28.13936	723.94843
1029	4.11200	-372.44894	1013.65918	462.64636	-202.84520	977.89764	351.94968	-297.78268	793.72272	268.11307	-292.55887	731.86194	258.86584	-223.72452	790.93402	281.25589	-227.81410	730.59155	270.97470	-301.15353	480.67093	268.40891	-308.76721	444.93784	378.79251	-373.21399	376.16803	235.01904	-365.93085	333.20926	230.47446	-308.76379	382.20093	233.12845	-311.78329	338.17294	228.04439	-330.62561	92.15513	237.56441	-322.19565	103.44108	315.08771	-392.32285	65.65965	282.50342	-219.85764	31.93316	202.42708	-166.33549	56.39533	269.06564	-192.16130	37.85852	314.83276	-369.58493	1011.52332	534.36780	-182.82355	972.32007	591.58331	-276.30881	789.47272	689.69299	-268.89886	726.77924	691.80414	-203.84949	790.45020	669.50800	-206.77730	727.77832	675.63458	-289.70520	463.06787	678.54218	-285.63342	460.33835	568.24042	-347.98715	392.75308	709.38629	-345.71106	344.88708	716.19037	-287.65112	385.46387	699.84027	-294.25409	339.79288	706.89642	-323.48785	90.54134	696.10071	-315.65588	105.76688	618.18243	-388.16226	62.39555	656.03613	-184.52104	35.91782	610.46368	-163.70605	53.96143	655.84753	-205.57790	28.12482	723.97357
1030	4.11600	-372.45609	1013.67279	462.63770	-202.84460	977.86859	351.95868	-297.80524	793.70892	268.11243	-292.60184	731.83197	258.84698	-223.74693	790.92969	281.23874	-227.78711	730.56488	270.94791	-301.14117	480.66589	268.40140	-308.73932	444.93994	378.79852	-373.19415	376.16632	235.01567	-365.92807	333.17932	230.47165	-308.76941	382.17892	233.13562	-311.78210	338.15216	228.04964	-330.64383	92.15003	237.56310	-322.17288	103.40851	315.09006	-392.31659	65.62495	282.51566	-219.85704	31.91166	202.42244	-166.35834	56.55359	269.05005	-192.13225	37.83472	314.82083	-369.57877	1011.52423	534.35840	-182.83528	972.29407	591.58051	-276.32324	789.45276	689.68011	-268.90436	726.72162	691.78827	-203.85783	790.42896	669.52618	-206.79448	727.75592	675.63953	-289.69977	463.05591	678.55121	-285.64264	460.32083	568.24060	-347.99432	392.73682	709.38605	-345.73651	344.87473	716.17310	-287.63950	385.45029	699.84839	-294.25500	339.74670	706.90521	-323.46722	90.51424	696.09161	-315.64014	105.76009	618.19354	-388.12079	62.36104	656.04999	-184.49751	35.88512	610.47247	-163.70105	53.94990	655.83997	-205.57416	28.09651	723.97540
1031	4.12000	-372.49542	1013.68402	462.61081	-202.85667	977.85846	351.94287	-297.78519	793.71814	268.08981	-292.57916	731.82886	258.84570	-223.71646	790.91125	281.23859	-227.78418	730.56390	270.94543	-301.14011	480.64258	268.39828	-308.69366	444.92563	378.78915	-373.21371	376.16254	235.00644	-365.90616	333.11847	230.47145	-308.78003	382.15448	233.13858	-311.76285	338.14166	228.06505	-330.64423	92.16037	237.57208	-322.15918	103.40261	315.08450	-392.33340	65.61261	282.52005	-219.84769	31.89349	202.42233	-165.98297	56.87391	268.74228	-192.15083	37.80296	314.83121	-369.57651	1011.51868	534.35095	-182.84641	972.28528	591.58002	-276.31332	789.42743	689.67841	-268.90546	726.71466	691.78528	-203.87079	790.40601	669.50293	-206.78325	727.74634	675.65198	-289.69019	463.04343	678.55231	-285.63309	460.30405	568.22406	-347.97824	392.75903	709.38507	-345.71902	344.87808	716.17242	-287.65103	385.44266	699.85321	-294.24905	339.74030	706.91272	-323.44156	90.49200	696.10980	-315.63736	105.76865	618.18347	-388.16974	62.35532	656.06604	-184.47977	35.89339	610.47736	-163.69312	53.92829	655.83948	-205.59216	28.07394	723.98926
1032	4.12400	-372.54419	1013.73279	462.58987	-202.87056	977.86456	351.94293	-297.84451	793.71759	268.09457	-292.60529	731.83691	258.83133	-223.76189	790.90436	281.22952	-227.80080	730.55255	270.94354	-301.14853	480.63443	268.39685	-308.74054	444.88406	378.79092	-373.22327	376.18506	234.99426	-365.90814	333.10312	230.47668	-308.78143	382.13751	233.13699	-311.76437	338.13809	228.08167	-330.62180	92.15904	237.56375	-322.16641	103.38229	315.09329	-392.32101	65.62992	282.51346	-219.84479	31.89100	202.42285	-165.99792	56.81864	268.79050	-192.15483	37.79249	314.83615	-369.59515	1011.53729	534.33545	-182.87657	972.26801	591.59222	-276.32986	789.41443	689.67719	-268.88574	726.72571	691.78070	-203.91223	790.37964	669.49249	-206.82933	727.71649	675.62610	-289.68567	463.04095	678.53979	-285.67795	460.27209	568.26849	-348.00632	392.75385	709.40442	-345.73788	344.87509	716.15833	-287.67462	385.41235	699.86243	-294.26831	339.72168	706.92224	-323.45490	90.48289	696.11646	-315.62677	105.77050	618.18127	-388.18045	62.39194	656.08862	-184.50111	35.88105	610.48065	-163.67795	53.92157	655.85046	-205.59843	28.06144	723.99689
